<svg width="48" height="48" viewBox="0 0 48 48" fill="none" xmlns="http://www.w3.org/2000/svg">
<path fill-rule="evenodd" clip-rule="evenodd" d="M33.7485 20.3568C32.9032 20.405 32.0784 20.4692 31.2491 20.5306C30.3075 20.6021 29.4549 20.678 28.6841 20.7393C28.5658 21.0693 28.3979 21.5642 28.1673 22.224C27.9366 22.8883 27.6957 23.6255 27.43 24.4343C27.1643 25.2489 26.8855 26.103 26.6037 26.9979C26.3234 27.8914 26.0621 28.7396 25.8344 29.5527C25.6081 30.36 25.4256 31.0929 25.2971 31.7367C25.1701 32.3805 25.1249 32.8506 25.157 33.1514C25.6358 32.8463 26.1424 32.3484 26.6738 31.6491C27.2023 30.9513 27.7278 30.1513 28.2651 29.268C28.8067 28.3775 29.3498 27.4534 29.8827 26.4767C30.3717 25.5789 30.8477 24.7365 31.3163 23.9511C31.3484 23.8869 31.3893 23.8197 31.436 23.7511C31.5002 23.6431 31.563 23.5482 31.6258 23.4664C31.7148 23.3321 31.8053 23.1934 31.8988 23.0533C32.0637 22.8095 32.2316 22.5379 32.42 22.243C32.6068 21.9496 32.8214 21.6313 33.0682 21.2853C33.2682 21.0021 33.493 20.6941 33.7485 20.3568ZM22.3087 23.1423C22.1131 23.2664 21.9058 23.462 21.6941 23.7277C21.478 23.9964 21.2693 24.2956 21.0736 24.6431C20.8722 24.9993 20.6795 25.3833 20.4955 25.7935C20.3101 26.2066 20.1364 26.6198 19.9831 27.03C20.2298 27.2505 20.4999 27.2767 20.8182 27.0943C21.1203 26.9205 21.408 26.6315 21.6605 26.2212C21.9102 25.8154 22.1189 25.3395 22.2518 24.7876C22.3875 24.2314 22.4036 23.6839 22.3087 23.1423ZM19.4371 30.9834C19.6123 31.0447 19.8517 30.9907 20.1583 30.817C20.4663 30.6418 20.8079 30.3863 21.1831 30.0491C21.551 29.7177 21.9715 29.3104 22.4094 28.833C22.8489 28.3541 23.281 27.8184 23.7321 27.2519C24.1861 26.6826 24.6212 26.0855 25.0562 25.4562C25.465 24.8664 25.8679 24.2708 26.2329 23.665C26.2957 23.4679 26.3585 23.2722 26.4227 23.0766C26.6738 22.3087 26.9161 21.5773 27.1541 20.8809C26.7322 20.9233 26.3716 20.9612 26.0782 20.9933C25.7745 21.0269 25.5935 21.0488 25.5307 21.0605C25.3351 21.0955 25.1964 21.0824 25.0986 21.0152C25.0037 20.9481 24.957 20.8678 24.9613 20.7685C24.9643 20.6722 25.0124 20.5787 25.1059 20.4868C25.1964 20.3992 25.3395 20.3349 25.5322 20.3043C26.1628 20.205 26.7979 20.1086 27.433 20.0152C27.6344 19.4254 27.8286 18.9013 28.0023 18.4341C28.1746 17.9699 28.3249 17.583 28.4388 17.2779C28.7264 16.4969 29.033 15.891 29.3659 15.4618C29.7002 15.0297 30.0097 14.7479 30.2929 14.6238C30.5776 14.4997 30.8141 14.526 30.9936 14.707C31.1791 14.8939 31.2842 15.2078 31.2827 15.6487C31.2798 16.0107 31.2009 16.3874 31.0579 16.7845C30.9163 17.1772 30.7425 17.5524 30.5352 17.9217C30.3338 18.2838 30.1206 18.6283 29.887 18.9539C29.6593 19.2736 29.4622 19.5393 29.2899 19.751C30.1104 19.6473 31.0009 19.5261 31.9601 19.4137C32.9178 19.3013 33.8813 19.1933 34.8434 19.1013C35.8157 19.0093 36.7559 18.9232 37.6814 18.8546C38.5997 18.7874 39.4275 18.7334 40.1618 18.6882C40.9005 18.6429 41.5107 18.6239 42.0086 18.6049C42.4947 18.586 42.8086 18.5772 42.9312 18.5699C43.1984 18.5553 43.3663 18.6298 43.4407 18.7816C43.5196 18.9436 43.5269 19.1217 43.4583 19.3188C43.3896 19.5159 43.2524 19.6999 43.0553 19.8692C42.8582 20.0386 42.6159 20.1247 42.3225 20.1349C42.1735 20.1393 41.8363 20.1393 41.3253 20.1393C40.8085 20.1408 40.1793 20.1437 39.4362 20.1612C38.6888 20.1787 37.8537 20.186 36.9267 20.2196L36.1836 20.2473C36.1631 20.297 36.1369 20.3466 36.1091 20.3977C35.8653 20.8313 35.6157 21.3174 35.3485 21.8386C35.0799 22.3642 34.8098 22.9029 34.5368 23.4489C34.2638 23.9949 34.0069 24.5351 33.7558 25.0621C33.5018 25.5935 33.2725 26.0621 33.0725 26.484C32.8711 26.9088 32.709 27.2548 32.5835 27.522C32.455 27.795 32.3878 27.9512 32.3762 27.9892C32.3893 27.9512 32.5076 27.7658 32.728 27.4417C33.5514 26.2256 36.188 22.9204 37.6887 22.627C38.0975 22.5481 38.4143 22.554 38.6435 22.6532C38.8771 22.7554 39.0026 22.9146 39.0275 23.1306C39.0523 23.3438 38.9501 23.5394 38.7034 23.719C38.4566 23.8985 38.2041 24.1423 37.9369 24.446C37.6727 24.7482 37.4318 25.065 37.2274 25.4066C37.0216 25.7497 36.8654 26.0825 36.7602 26.4125C36.6551 26.7366 36.6507 27.0081 36.7296 27.2198C36.934 27.2169 37.1573 27.1205 37.4026 26.9322C37.6522 26.741 37.899 26.5059 38.153 26.2183C38.3428 26.0037 38.5326 25.773 38.7121 25.5249C38.7793 25.4022 38.8494 25.2796 38.9194 25.1584C39.3034 24.5044 39.7414 23.9204 40.2217 23.4036C40.7049 22.8839 41.2144 22.5043 41.7458 22.2605C42.0889 22.1029 42.3998 22.0299 42.6743 22.0328C42.9502 22.0357 43.1882 22.0853 43.3853 22.1832C43.5882 22.2824 43.7444 22.408 43.8568 22.57C43.9634 22.7233 44.0349 22.8737 44.0627 23.0241C44.0919 23.1773 44.0743 23.3029 44.0072 23.4139C43.9386 23.5263 43.8218 23.5832 43.6539 23.5963C43.0217 23.6474 42.4319 23.8635 41.8918 24.2212C41.3341 24.5891 40.8304 25.027 40.3866 25.5497C39.937 26.0782 39.5443 26.649 39.2056 27.2475C38.8654 27.8534 38.5837 28.4169 38.3632 28.941C38.1428 29.4666 38.0099 29.9133 37.9471 30.2695C37.8829 30.6345 37.9019 30.836 38.0012 30.8798C38.1252 30.9338 38.2946 30.8827 38.5019 30.7294C38.7034 30.579 38.9224 30.363 39.1516 30.0856C39.3866 29.7994 39.6421 29.4783 39.8771 29.1031C40.1136 28.7264 40.3268 28.3395 40.5268 27.9541C40.7282 27.5673 40.8845 27.1877 41.0188 26.8052C41.1516 26.43 41.2392 26.0913 41.2655 25.8052C41.2859 25.5833 41.391 25.4329 41.5808 25.357C41.7706 25.2811 41.9735 25.2825 42.1794 25.3511C42.3896 25.4212 42.575 25.5555 42.7327 25.7511C42.8933 25.9482 42.9663 26.192 42.921 26.4884C42.8889 26.703 42.8334 26.9702 42.7429 27.2943C42.6495 27.6227 42.5546 27.941 42.4524 28.2476C42.3473 28.5615 42.2538 28.8447 42.1735 29.1031C42.0947 29.36 42.0451 29.5264 42.0451 29.6038C42.137 29.6126 42.2845 29.4812 42.5006 29.2038C42.7137 28.9293 42.9677 28.5688 43.2583 28.1322C43.5444 27.703 43.8612 27.2242 44.213 26.6855C44.5619 26.1541 44.9152 25.6183 45.2963 25.084C45.489 24.8139 45.6569 24.6402 45.8189 24.5628C45.978 24.4883 46.0978 24.4854 46.178 24.5526C46.2569 24.6197 46.2934 24.7511 46.2715 24.9497C46.2481 25.1453 46.1401 25.3818 45.9488 25.6723C45.5751 26.2402 45.2218 26.7877 44.8641 27.3249C44.5065 27.8607 44.1678 28.3425 43.8524 28.7877C43.5342 29.2345 43.2524 29.6126 42.9925 29.9279C42.7356 30.2418 42.5225 30.4695 42.3517 30.6024C42.0392 30.8433 41.7502 30.8885 41.5035 30.7557C41.2611 30.6257 41.1297 30.3411 41.0961 29.9075C41.0845 29.7513 41.0713 29.5586 41.0874 29.3221C41.102 29.0885 41.1224 28.852 41.1516 28.6155C40.9516 29.0286 40.7136 29.4213 40.4465 29.8097C40.1793 30.198 39.8917 30.5425 39.5895 30.8301C39.2829 31.1207 38.9705 31.328 38.6537 31.4637C38.3399 31.598 38.0289 31.6156 37.7209 31.4958C37.4391 31.3878 37.2829 31.1163 37.2245 30.6827C37.1676 30.2564 37.2143 29.744 37.3427 29.1396C37.4391 28.6826 37.5719 28.1892 37.7544 27.6636C37.6829 27.7118 37.6084 27.7585 37.534 27.8038C37.1573 28.0301 36.823 28.1395 36.5208 28.1308C36.2303 28.1235 35.9953 28.0286 35.8171 27.8519C35.6347 27.6724 35.5296 27.4096 35.4989 27.0738C35.4668 26.7322 35.5339 26.357 35.6887 25.9278C34.4405 26.4826 32.4375 28.9396 31.5586 30.1951C31.3338 30.5163 31.1426 30.7411 30.9747 30.855C30.8112 30.9659 30.6827 31.0112 30.5893 30.9761C30.4885 30.9382 30.4389 30.8316 30.4345 30.6593C30.4301 30.4827 30.4754 30.2608 30.5688 29.9936C31.052 28.5921 31.474 27.4198 31.8243 26.465C32.1718 25.5161 32.4638 24.7409 32.693 24.1307C32.9514 23.4372 33.166 22.8693 33.3572 22.4401C33.255 22.6065 33.1222 22.7803 32.9747 22.9846C32.8521 23.154 32.7251 23.354 32.5689 23.5701C32.4243 23.7715 32.2754 23.9891 32.1163 24.2299C32.1032 24.2518 32.0915 24.2723 32.0783 24.2942C31.8272 24.719 31.5499 25.211 31.2345 25.7672C30.9177 26.3249 30.5863 26.9161 30.2272 27.5351C29.8695 28.1556 29.4914 28.7834 29.1016 29.417C28.7104 30.0506 28.3191 30.6433 27.9352 31.2068C27.5527 31.7703 27.176 32.2725 26.8067 32.7149C26.4388 33.1587 26.1059 33.5003 25.7906 33.7426C25.4183 34.0288 25.0913 34.1266 24.8168 34.0331C24.5351 33.9368 24.3569 33.6623 24.2796 33.2098C24.2153 32.8273 24.2051 32.3586 24.2562 31.801C24.3073 31.2374 24.4051 30.6155 24.5424 29.9367C24.6796 29.2505 24.8387 28.5264 25.0431 27.7629C25.173 27.2797 25.3073 26.7921 25.449 26.3015C25.265 26.5643 25.0825 26.8242 24.8971 27.0811C24.2095 28.0403 23.5277 28.8972 22.8503 29.6359C22.1656 30.3834 21.4999 30.9557 20.8634 31.3834C20.2284 31.8097 19.6386 31.9966 19.0853 31.9338C18.7144 31.8915 18.4663 31.6564 18.3319 31.2199C18.1991 30.779 18.1597 30.2243 18.2108 29.5586C18.2648 28.8841 18.3947 28.1483 18.5918 27.3395C18.7874 26.5351 19.0385 25.7409 19.3495 24.9628C19.659 24.1876 20.0006 23.4781 20.3787 22.8328C20.7568 22.1861 21.1466 21.6897 21.5408 21.3569C21.8766 21.0722 22.1832 20.9014 22.4635 20.8371C22.7452 20.7714 22.9919 20.8065 23.1992 20.9262C23.4168 21.0503 23.5861 21.2576 23.7087 21.5408C23.8328 21.8284 23.9044 22.1759 23.919 22.5905C23.938 23.1773 23.8533 23.7876 23.6708 24.4285C23.4868 25.0752 23.2328 25.6723 22.9189 26.2183C22.6021 26.7672 22.227 27.2213 21.805 27.595C21.3875 27.9644 20.951 28.179 20.5043 28.1994C20.1451 28.2169 19.8751 28.1133 19.694 27.9045C19.5729 28.2914 19.4648 28.6695 19.3831 29.0315C19.3013 29.3936 19.2371 29.7119 19.2108 29.9922C19.1831 30.2652 19.1816 30.4914 19.2137 30.6681C19.2444 30.8418 19.3232 30.9425 19.4371 30.9834ZM23.9993 0C37.2551 0 48 10.7449 48 23.9993C48 37.2537 37.2551 48 23.9993 48C13.8165 48 5.11694 41.6582 1.63071 32.709C1.7037 32.5411 1.78108 32.3659 1.86283 32.1849C2.21905 31.3878 2.63074 30.4929 3.08477 29.4958C3.54317 28.4958 4.01618 27.4753 4.48919 26.4358C4.96511 25.3935 5.44104 24.3686 5.90091 23.3496C6.35786 22.3364 6.77247 21.4109 7.1389 20.5802C7.57687 19.5918 8.15937 18.4239 8.50391 17.4166C8.63676 17.0312 8.65282 16.6793 8.54917 16.3728C8.44551 16.0647 8.282 15.8384 8.08492 15.707C7.87907 15.5698 7.66009 15.5421 7.43088 15.618C7.19584 15.6968 7.02941 15.9144 6.91846 16.2808C6.88196 16.4063 6.75641 16.7713 6.53743 17.3626C6.3199 17.9524 6.04982 18.6838 5.72426 19.5656C5.40162 20.4415 5.04249 21.4226 4.62934 22.5014C4.21473 23.5803 3.79428 24.6694 3.36945 25.7774C2.94462 26.8855 2.52854 27.9614 2.12269 29.0213C1.77816 29.9206 1.4745 30.7513 1.19566 31.4988C0.421911 29.141 0 26.6198 0 23.9993C0 21.3218 0.439429 18.7466 1.24821 16.3421C2.2862 15.856 3.39572 15.3611 4.5797 14.8661C5.7739 14.3669 7.02357 13.8807 8.30682 13.4092C9.58861 12.9391 10.8529 12.5186 12.0982 12.161C13.3376 11.8047 14.5216 11.504 15.656 11.2748C16.7947 11.0456 17.8151 10.9157 18.7276 10.8879C19.6298 10.8616 20.3948 10.923 21.0152 11.1025C21.6488 11.285 22.0722 11.6018 22.2941 12.0544C22.516 12.5055 22.4868 13.0603 22.2167 13.7026C21.9452 14.3493 21.5131 15.0486 20.9087 15.8122C20.3072 16.5713 19.6181 17.4268 18.6969 18.2108C14.5172 21.7671 9.40029 23.8124 6.44983 25.0358C6.26442 25.2343 6.13157 25.6446 6.20311 25.7117C6.27318 25.7789 6.46151 25.7701 6.77685 25.6855C10.1565 24.7686 18.0487 20.5452 20.7904 17.9407C21.7934 16.9874 22.6474 16.072 23.3452 15.2005C24.0445 14.3274 24.5453 13.5289 24.8373 12.7931C25.1292 12.0558 25.1292 11.4222 24.8387 10.8981C24.5497 10.377 24.0664 9.99446 23.392 9.7638C22.7262 9.5346 21.9116 9.4032 20.9554 9.39883C19.9991 9.39299 18.932 9.50102 17.7392 9.71562C16.548 9.92877 15.2968 10.2237 13.9858 10.5989C12.6778 10.9726 11.304 11.4149 9.90833 11.9244C8.49369 12.4398 7.10387 12.9902 5.71404 13.5668C4.3213 14.145 2.95629 14.745 1.62633 15.3669L1.59275 15.383C5.05709 6.3856 13.7829 0 23.9993 0Z" fill="white"/>
</svg>
