<svg width="32" height="32" viewBox="0 0 32 32" fill="none" xmlns="http://www.w3.org/2000/svg">
<circle cx="16" cy="16" r="16" fill="#404040"/>
<g clip-path="url(#clip0_11:499)">
<path d="M25.1667 8.50002C24.3687 9.06292 23.4851 9.49344 22.55 9.77502C22.0482 9.19794 21.3812 8.78893 20.6392 8.60329C19.8973 8.41765 19.1163 8.46435 18.4018 8.73706C17.6873 9.00978 17.0737 9.49535 16.6442 10.1281C16.2146 10.7609 15.9898 11.5103 16 12.275V13.1084C14.5356 13.1463 13.0844 12.8215 11.7759 12.1629C10.4673 11.5043 9.34197 10.5322 8.50004 9.33335C8.50004 9.33335 5.16671 16.8334 12.6667 20.1667C10.9505 21.3317 8.906 21.9158 6.83337 21.8334C14.3334 26 23.5 21.8334 23.5 12.25C23.4993 12.0179 23.477 11.7863 23.4334 11.5584C24.2839 10.7196 24.8841 9.66061 25.1667 8.50002Z" fill="white" stroke="white" stroke-width="2" stroke-linecap="round" stroke-linejoin="round"/>
</g>
<defs>
<clipPath id="clip0_11:499">
<rect width="20" height="20" fill="white" transform="translate(6 6)"/>
</clipPath>
</defs>
</svg>
