<svg width="40" height="40" viewBox="0 0 40 40" fill="none" xmlns="http://www.w3.org/2000/svg">
<path fill-rule="evenodd" clip-rule="evenodd" d="M28.1237 16.964C27.4193 17.0042 26.732 17.0577 26.0409 17.1088C25.2562 17.1684 24.5458 17.2317 23.9034 17.2828C23.8049 17.5577 23.665 17.9701 23.4727 18.52C23.2805 19.0736 23.0798 19.6879 22.8584 20.3619C22.6369 21.0408 22.4046 21.7525 22.1698 22.4982C21.9362 23.2428 21.7184 23.9496 21.5286 24.6273C21.3401 25.3 21.188 25.9108 21.0809 26.4473C20.9751 26.9838 20.9374 27.3755 20.9641 27.6261C21.3632 27.3719 21.7853 26.957 22.2282 26.3743C22.6686 25.7928 23.1065 25.1261 23.5542 24.39C24.0056 23.6479 24.4582 22.8778 24.9022 22.0639C25.3098 21.3157 25.7064 20.6138 26.0969 19.9592C26.1237 19.9057 26.1577 19.8498 26.1967 19.7926C26.2502 19.7025 26.3025 19.6235 26.3548 19.5553C26.429 19.4434 26.5045 19.3278 26.5823 19.211C26.7198 19.0079 26.8597 18.7816 27.0166 18.5358C27.1724 18.2913 27.3512 18.0261 27.5568 17.7378C27.7235 17.5017 27.9108 17.2451 28.1237 16.964ZM18.5906 19.2853C18.4276 19.3887 18.2548 19.5517 18.0784 19.7731C17.8984 19.997 17.7244 20.2464 17.5614 20.5359C17.3935 20.8327 17.2329 21.1527 17.0796 21.4946C16.9251 21.8389 16.7803 22.1832 16.6526 22.525C16.8582 22.7087 17.0832 22.7306 17.3485 22.5785C17.6003 22.4338 17.84 22.1929 18.0504 21.851C18.2585 21.5128 18.4324 21.1162 18.5431 20.6563C18.6563 20.1928 18.6697 19.7366 18.5906 19.2853ZM16.1976 25.8195C16.3436 25.8706 16.5431 25.8256 16.7986 25.6808C17.0553 25.5348 17.3399 25.3219 17.6526 25.0409C17.9592 24.7647 18.3096 24.4253 18.6745 24.0275C19.0407 23.6285 19.4008 23.182 19.7768 22.7099C20.1551 22.2355 20.5177 21.7379 20.8802 21.2135C21.2208 20.722 21.5566 20.2257 21.8608 19.7208C21.9131 19.5566 21.9654 19.3935 22.0189 19.2305C22.2282 18.5906 22.4301 17.9811 22.6284 17.4008C22.2768 17.4361 21.9763 17.4677 21.7318 17.4944C21.4788 17.5224 21.3279 17.5407 21.2756 17.5504C21.1126 17.5796 20.997 17.5687 20.9155 17.5127C20.8364 17.4567 20.7975 17.3898 20.8011 17.3071C20.8036 17.2268 20.8437 17.1489 20.9216 17.0723C20.997 16.9993 21.1162 16.9458 21.2768 16.9202C21.8024 16.8375 22.3316 16.7572 22.8608 16.6793C23.0287 16.1878 23.1905 15.7511 23.3353 15.3618C23.4788 14.9749 23.6041 14.6525 23.699 14.3982C23.9387 13.7474 24.1942 13.2425 24.4715 12.8848C24.7501 12.5247 25.0081 12.2899 25.2441 12.1865C25.4813 12.0831 25.6784 12.105 25.828 12.2558C25.9825 12.4116 26.0701 12.6731 26.0689 13.0405C26.0665 13.3423 26.0008 13.6561 25.8816 13.987C25.7636 14.3143 25.6188 14.627 25.446 14.9348C25.2781 15.2365 25.1005 15.5236 24.9059 15.7949C24.7161 16.0613 24.5518 16.2827 24.4083 16.4591C25.092 16.3728 25.8341 16.2718 26.6334 16.1781C27.4315 16.0844 28.2344 15.9944 29.0362 15.9178C29.8464 15.8411 30.6299 15.7693 31.4012 15.7122C32.1664 15.6562 32.8562 15.6112 33.4682 15.5735C34.0838 15.5358 34.5923 15.5199 35.0071 15.5041C35.4123 15.4883 35.6738 15.481 35.776 15.4749C35.9987 15.4628 36.1386 15.5248 36.2006 15.6513C36.2663 15.7864 36.2724 15.9348 36.2152 16.099C36.158 16.2633 36.0437 16.4166 35.8794 16.5577C35.7152 16.6988 35.5132 16.7706 35.2687 16.7791C35.1446 16.7827 34.8636 16.7827 34.4378 16.7827C34.0071 16.784 33.4828 16.7864 32.8635 16.801C32.2406 16.8156 31.5448 16.8217 30.7722 16.8497L30.153 16.8728C30.136 16.9141 30.1141 16.9555 30.0909 16.9981C29.8878 17.3594 29.6797 17.7645 29.4571 18.1988C29.2332 18.6368 29.0082 19.0857 28.7807 19.5407C28.5532 19.9957 28.3391 20.4459 28.1298 20.8851C27.9181 21.3279 27.7271 21.7184 27.5604 22.07C27.3926 22.424 27.2575 22.7124 27.1529 22.935C27.0458 23.1625 26.9899 23.2927 26.9801 23.3243C26.9911 23.2927 27.0896 23.1382 27.2733 22.8681C27.9595 21.8547 30.1566 19.1003 31.4073 18.8558C31.7479 18.7901 32.0119 18.795 32.2029 18.8777C32.3976 18.9629 32.5022 19.0955 32.5229 19.2755C32.5436 19.4531 32.4584 19.6162 32.2528 19.7658C32.0472 19.9154 31.8367 20.1186 31.6141 20.3717C31.3939 20.6235 31.1932 20.8875 31.0228 21.1722C30.8513 21.4581 30.7211 21.7355 30.6335 22.0104C30.5459 22.2805 30.5423 22.5068 30.608 22.6832C30.7783 22.6807 30.9644 22.6004 31.1688 22.4435C31.3769 22.2841 31.5825 22.0883 31.7942 21.8486C31.9523 21.6698 32.1105 21.4775 32.2601 21.2707C32.3161 21.1685 32.3745 21.0663 32.4329 20.9654C32.7528 20.4203 33.1178 19.9337 33.5181 19.503C33.9207 19.0699 34.3453 18.7536 34.7882 18.5504C35.0741 18.4191 35.3332 18.3582 35.5619 18.3607C35.7918 18.3631 35.9901 18.4045 36.1544 18.486C36.3235 18.5687 36.4537 18.6733 36.5473 18.8084C36.6362 18.9361 36.6958 19.0614 36.7189 19.1867C36.7432 19.3145 36.7286 19.4191 36.6726 19.5115C36.6155 19.6052 36.5181 19.6527 36.3782 19.6636C35.8515 19.7062 35.36 19.8863 34.9098 20.1843C34.4451 20.4909 34.0254 20.8559 33.6555 21.2914C33.2808 21.7318 32.9536 22.2075 32.6713 22.7063C32.3878 23.2112 32.153 23.6808 31.9693 24.1175C31.7856 24.5555 31.6749 24.9278 31.6226 25.2246C31.5691 25.5288 31.5849 25.6966 31.6676 25.7331C31.771 25.7782 31.9122 25.7356 32.0849 25.6078C32.2528 25.4825 32.4353 25.3025 32.6263 25.0713C32.8222 24.8329 33.0351 24.5652 33.2309 24.2526C33.428 23.9387 33.6056 23.6163 33.7723 23.2951C33.9402 22.9727 34.0704 22.6564 34.1823 22.3377C34.293 22.025 34.366 21.7428 34.3879 21.5043C34.4049 21.3194 34.4925 21.1941 34.6507 21.1308C34.8088 21.0676 34.9779 21.0688 35.1495 21.1259C35.3247 21.1843 35.4792 21.2963 35.6106 21.4593C35.7444 21.6235 35.8052 21.8267 35.7675 22.0737C35.7407 22.2525 35.6945 22.4751 35.6191 22.7452C35.5412 23.0189 35.4621 23.2842 35.377 23.5396C35.2894 23.8012 35.2115 24.0372 35.1446 24.2526C35.0789 24.4667 35.0376 24.6054 35.0376 24.6698C35.1142 24.6771 35.2371 24.5677 35.4171 24.3365C35.5948 24.1078 35.8064 23.8073 36.0485 23.4435C36.287 23.0859 36.551 22.6868 36.8442 22.2379C37.1349 21.7951 37.4294 21.3486 37.7469 20.9033C37.9075 20.6782 38.0474 20.5335 38.1824 20.469C38.315 20.4069 38.4148 20.4045 38.4817 20.4605C38.5474 20.5164 38.5778 20.6259 38.5596 20.7914C38.5401 20.9544 38.4501 21.1515 38.2907 21.3936C37.9793 21.8668 37.6848 22.3231 37.3868 22.7708C37.0887 23.2173 36.8065 23.6187 36.5437 23.9898C36.2785 24.3621 36.0437 24.6771 35.8271 24.9399C35.613 25.2015 35.4354 25.3913 35.293 25.502C35.0327 25.7027 34.7918 25.7404 34.5862 25.6297C34.3843 25.5215 34.2748 25.2842 34.2468 24.9229C34.2371 24.7927 34.2261 24.6321 34.2395 24.435C34.2516 24.2404 34.2687 24.0433 34.293 23.8462C34.1263 24.1905 33.928 24.5178 33.7054 24.8414C33.4828 25.165 33.2431 25.4521 32.9913 25.6918C32.7358 25.9339 32.4754 26.1066 32.2114 26.2198C31.9499 26.3317 31.6907 26.3463 31.434 26.2465C31.1992 26.1565 31.0691 25.9302 31.0204 25.5689C30.973 25.2137 31.0119 24.7866 31.1189 24.283C31.1992 23.9022 31.31 23.491 31.462 23.053C31.4024 23.0932 31.3404 23.1321 31.2783 23.1698C30.9644 23.3584 30.6858 23.4496 30.434 23.4423C30.1919 23.4362 29.996 23.3572 29.8476 23.21C29.6955 23.0603 29.608 22.8413 29.5824 22.5615C29.5556 22.2768 29.6116 21.9642 29.7406 21.6065C28.7004 22.0688 27.0312 24.1163 26.2989 25.1626C26.1115 25.4302 25.9521 25.6176 25.8122 25.7125C25.676 25.8049 25.5689 25.8426 25.491 25.8134C25.4071 25.7818 25.3657 25.693 25.3621 25.5494C25.3584 25.4022 25.3961 25.2173 25.474 24.9947C25.8767 23.8268 26.2283 22.8498 26.5203 22.0542C26.8098 21.2634 27.0531 20.6174 27.2441 20.1089C27.4595 19.531 27.6383 19.0578 27.7977 18.7001C27.7125 18.8388 27.6018 18.9835 27.4789 19.1539C27.3767 19.295 27.2709 19.4617 27.1407 19.6417C27.0203 19.8096 26.8962 19.9909 26.7636 20.1916C26.7526 20.2099 26.7429 20.2269 26.732 20.2451C26.5227 20.5992 26.2916 21.0092 26.0288 21.4727C25.7648 21.9374 25.4886 22.4301 25.1893 22.946C24.8913 23.463 24.5762 23.9861 24.2513 24.5141C23.9253 25.0421 23.5993 25.5361 23.2793 26.0057C22.9606 26.4753 22.6467 26.8938 22.3389 27.2624C22.0323 27.6322 21.7549 27.9169 21.4921 28.1189C21.1819 28.3573 20.9094 28.4388 20.6807 28.361C20.4459 28.2807 20.2975 28.0519 20.233 27.6748C20.1794 27.3561 20.1709 26.9655 20.2135 26.5008C20.2561 26.0312 20.3376 25.5129 20.452 24.9472C20.5663 24.3754 20.6989 23.772 20.8692 23.1357C20.9775 22.7331 21.0895 22.3267 21.2075 21.9179C21.0542 22.1369 20.9021 22.3535 20.7476 22.5676C20.1746 23.3669 19.6064 24.081 19.0419 24.6966C18.4714 25.3195 17.9166 25.7964 17.3862 26.1529C16.857 26.5081 16.3655 26.6638 15.9044 26.6115C15.5954 26.5762 15.3885 26.3804 15.2766 26.0166C15.1659 25.6492 15.1331 25.1869 15.1756 24.6321C15.2207 24.0701 15.3289 23.4569 15.4932 22.7829C15.6562 22.1126 15.8654 21.4508 16.1246 20.8023C16.3825 20.1563 16.6672 19.5651 16.9823 19.0273C17.2974 18.4884 17.6222 18.0748 17.9507 17.7974C18.2305 17.5601 18.486 17.4178 18.7195 17.3643C18.9543 17.3095 19.1599 17.3387 19.3327 17.4385C19.514 17.5419 19.6551 17.7147 19.7573 17.9507C19.8607 18.1903 19.9203 18.4799 19.9325 18.8254C19.9483 19.3145 19.8777 19.823 19.7257 20.3571C19.5724 20.896 19.3607 21.3936 19.0991 21.8486C18.8351 22.306 18.5225 22.6844 18.1709 22.9958C17.8229 23.3036 17.4592 23.4825 17.0869 23.4995C16.7876 23.5141 16.5625 23.4277 16.4117 23.2537C16.3107 23.5761 16.2207 23.8912 16.1526 24.1929C16.0844 24.4947 16.0309 24.7599 16.009 24.9935C15.9859 25.221 15.9847 25.4095 16.0114 25.5567C16.037 25.7015 16.1027 25.7855 16.1976 25.8195ZM19.9994 0C31.046 0 40 8.95404 40 19.9994C40 31.0447 31.046 40 19.9994 40C11.5137 40 4.26412 34.7152 1.35892 27.2575C1.41975 27.1176 1.48423 26.9716 1.55236 26.8208C1.8492 26.1565 2.19228 25.4107 2.57064 24.5798C2.95264 23.7465 3.34682 22.8961 3.74099 22.0299C4.1376 21.1612 4.5342 20.3072 4.91742 19.458C5.29821 18.6137 5.64372 17.8424 5.94909 17.1502C6.31406 16.3265 6.79948 15.3533 7.08659 14.5138C7.1973 14.1926 7.21068 13.8994 7.1243 13.644C7.03793 13.3873 6.90167 13.1987 6.73743 13.0892C6.56589 12.9748 6.38341 12.9517 6.1924 13.015C5.99653 13.0807 5.85784 13.262 5.76538 13.5673C5.73497 13.6719 5.63034 13.9761 5.44785 14.4688C5.26658 14.9603 5.04152 15.5698 4.77022 16.3046C4.50135 17.0346 4.20207 17.8521 3.85778 18.7512C3.51227 19.6502 3.1619 20.5578 2.80787 21.4812C2.45385 22.4046 2.10712 23.3012 1.76891 24.1844C1.4818 24.9338 1.22875 25.6261 0.996381 26.249C0.351592 24.2842 0 22.1832 0 19.9994C0 17.7682 0.366191 15.6221 1.04018 13.6184C1.90517 13.2133 2.82977 12.8009 3.81642 12.3885C4.81158 11.9724 5.85298 11.5673 6.92235 11.1743C7.99051 10.7826 9.04407 10.4322 10.0818 10.1341C11.1147 9.83728 12.1013 9.58667 13.0466 9.39566C13.9956 9.20466 14.8459 9.09638 15.6063 9.07327C16.3582 9.05137 16.9956 9.10247 17.5127 9.25211C18.0407 9.40418 18.3935 9.66818 18.5784 10.0453C18.7633 10.4212 18.739 10.8835 18.5139 11.4188C18.2877 11.9578 17.9276 12.5405 17.4239 13.1768C16.9227 13.8094 16.3484 14.5223 15.5808 15.1756C12.0977 18.1392 7.83357 19.8437 5.37486 20.8632C5.22035 21.0286 5.10964 21.3705 5.16926 21.4264C5.22765 21.4824 5.38459 21.4751 5.64737 21.4045C8.46376 20.6405 15.0406 17.121 17.3253 14.9506C18.1611 14.1561 18.8728 13.3934 19.4544 12.6671C20.0371 11.9395 20.4544 11.2741 20.6977 10.6609C20.941 10.0465 20.941 9.51854 20.6989 9.08178C20.458 8.64746 20.0554 8.32872 19.4933 8.1365C18.9385 7.9455 18.2597 7.836 17.4628 7.83235C16.666 7.82749 15.7766 7.91752 14.7827 8.09635C13.79 8.27397 12.7473 8.51972 11.6549 8.83239C10.5648 9.14383 9.41999 9.51245 8.25694 9.93704C7.07807 10.3665 5.91989 10.8251 4.7617 11.3057C3.60108 11.7875 2.46358 12.2875 1.35527 12.8057L1.32729 12.8191C4.21424 5.32133 11.4858 0 19.9994 0Z" fill="url(#paint0_linear_203:652)"/>
<defs>
<linearGradient id="paint0_linear_203:652" x1="2.85522" y1="9.69817" x2="37.1457" y2="30.302" gradientUnits="userSpaceOnUse">
<stop stop-color="#F29822"/>
<stop offset="0.4569" stop-color="#F26643"/>
<stop offset="0.8053" stop-color="#F24857"/>
<stop offset="1" stop-color="#F23C5F"/>
</linearGradient>
</defs>
</svg>
